<svg width="37" height="37" viewBox="0 0 37 37" fill="none" xmlns="http://www.w3.org/2000/svg">
<path fill-rule="evenodd" clip-rule="evenodd" d="M11.1306 0.717612C13.0367 0.629866 13.6445 0.610367 18.5 0.610367C23.3555 0.610367 23.9633 0.631491 25.8678 0.717612C27.7723 0.803733 29.0722 1.1076 30.2097 1.54795C31.4009 1.99806 32.4815 2.70165 33.3752 3.61161C34.2852 4.5037 34.9873 5.58265 35.4358 6.77535C35.8778 7.9128 36.18 9.21275 36.2677 11.1139C36.3555 13.0232 36.375 13.6309 36.375 18.4846C36.375 23.3399 36.3539 23.9476 36.2677 25.8537C36.1816 27.7548 35.8778 29.0548 35.4358 30.1922C34.9872 31.3851 34.2841 32.4658 33.3752 33.3592C32.4815 34.2692 31.4009 34.9711 30.2097 35.4196C29.0722 35.8616 27.7722 36.1638 25.871 36.2516C23.9632 36.3393 23.3555 36.3588 18.5 36.3588C13.6445 36.3588 13.0367 36.3377 11.1306 36.2516C9.22937 36.1655 7.92938 35.8616 6.79187 35.4196C5.599 34.9711 4.51821 34.268 3.62475 33.3592C2.71537 32.4666 2.01164 31.3864 1.56263 30.1938C1.12225 29.0564 0.82 27.7565 0.73225 25.8553C0.6445 23.946 0.625 23.3383 0.625 18.4846C0.625 13.6293 0.646125 13.0216 0.73225 11.1172C0.818375 9.21275 1.12225 7.9128 1.56263 6.77535C2.0123 5.58279 2.71657 4.50258 3.62637 3.60999C4.51857 2.70084 5.59827 1.99715 6.79025 1.54795C7.92775 1.1076 9.22775 0.805358 11.129 0.717612H11.1306ZM25.7231 3.93497C23.8381 3.84885 23.2726 3.83098 18.5 3.83098C13.7274 3.83098 13.1619 3.84885 11.2769 3.93497C9.53325 4.0146 8.5875 4.30546 7.957 4.55082C7.12337 4.87581 6.527 5.26092 5.90138 5.88652C5.30832 6.46345 4.85192 7.16579 4.56562 7.94205C4.32025 8.57253 4.02938 9.51823 3.94975 11.2618C3.86363 13.1467 3.84575 13.7122 3.84575 18.4846C3.84575 23.257 3.86363 23.8225 3.94975 25.7074C4.02938 27.451 4.32025 28.3967 4.56562 29.0271C4.85162 29.8022 5.30825 30.5058 5.90138 31.0827C6.47825 31.6758 7.18188 32.1324 7.957 32.4184C8.5875 32.6637 9.53325 32.9546 11.2769 33.0342C13.1619 33.1203 13.7257 33.1382 18.5 33.1382C23.2743 33.1382 23.8381 33.1203 25.7231 33.0342C27.4667 32.9546 28.4125 32.6637 29.043 32.4184C29.8766 32.0934 30.473 31.7083 31.0986 31.0827C31.6917 30.5058 32.1484 29.8022 32.4344 29.0271C32.6798 28.3967 32.9706 27.451 33.0503 25.7074C33.1364 23.8225 33.1543 23.257 33.1543 18.4846C33.1543 13.7122 33.1364 13.1467 33.0503 11.2618C32.9706 9.51823 32.6798 8.57253 32.4344 7.94205C32.1094 7.10846 31.7243 6.51211 31.0986 5.88652C30.5216 5.29353 29.8193 4.83715 29.043 4.55082C28.4125 4.30546 27.4667 4.0146 25.7231 3.93497ZM16.2169 23.9947C17.4919 24.5255 18.9117 24.5971 20.2338 24.1974C21.5558 23.7977 22.698 22.9514 23.4654 21.8031C24.2327 20.6548 24.5776 19.2757 24.4411 17.9014C24.3046 16.5271 23.6951 15.2428 22.7169 14.2679C22.0933 13.6447 21.3392 13.1675 20.509 12.8707C19.6789 12.5739 18.7932 12.4648 17.9158 12.5514C17.0384 12.6379 16.1911 12.9179 15.4349 13.3712C14.6787 13.8244 14.0325 14.4397 13.5426 15.1727C13.0528 15.9058 12.7316 16.7383 12.6021 17.6103C12.4726 18.4824 12.5381 19.3723 12.7939 20.216C13.0496 21.0597 13.4893 21.8362 14.0812 22.4896C14.6731 23.143 15.4025 23.6571 16.2169 23.9947ZM12.0033 11.9881C12.8564 11.135 13.8693 10.4583 14.984 9.99655C16.0987 9.53484 17.2934 9.2972 18.5 9.2972C19.7066 9.2972 20.9013 9.53484 22.016 9.99655C23.1307 10.4583 24.1436 11.135 24.9967 11.9881C25.8499 12.8413 26.5267 13.8541 26.9884 14.9687C27.4501 16.0834 27.6878 17.2781 27.6878 18.4846C27.6878 19.6911 27.4501 20.8858 26.9884 22.0005C26.5267 23.1151 25.8499 24.1279 24.9967 24.9811C23.2737 26.704 20.9368 27.672 18.5 27.672C16.0632 27.672 13.7263 26.704 12.0033 24.9811C10.2802 23.2581 9.31221 20.9212 9.31221 18.4846C9.31221 16.048 10.2802 13.7111 12.0033 11.9881ZM29.7255 10.6654C29.9369 10.466 30.1062 10.2262 30.2232 9.96017C30.3403 9.69416 30.4028 9.40736 30.4071 9.11676C30.4113 8.82616 30.3572 8.53767 30.2479 8.26835C30.1386 7.99904 29.9765 7.75439 29.7709 7.54888C29.5654 7.34338 29.3208 7.18119 29.0514 7.07193C28.7821 6.96267 28.4936 6.90856 28.203 6.91279C27.9124 6.91703 27.6256 6.97953 27.3595 7.09659C27.0935 7.21366 26.8537 7.38291 26.6542 7.59432C26.2664 8.00547 26.054 8.5516 26.0623 9.11676C26.0705 9.68193 26.2987 10.2216 26.6984 10.6213C27.0981 11.021 27.6378 11.2492 28.203 11.2574C28.7682 11.2656 29.3143 11.0533 29.7255 10.6654Z" fill="white"/>
</svg>
