<svg width="38" height="31" viewBox="0 0 38 31" fill="none" xmlns="http://www.w3.org/2000/svg">
<path d="M37.4199 4.0045C36.063 4.60572 34.6054 5.01195 33.073 5.19557C34.6541 4.24953 35.8371 2.76056 36.401 1.0065C34.9155 1.88882 33.2897 2.50988 31.5943 2.84267C30.4541 1.62538 28.944 0.818539 27.2983 0.547416C25.6526 0.276293 23.9634 0.556057 22.493 1.34327C21.0226 2.13049 19.8533 3.38111 19.1665 4.90098C18.4798 6.42084 18.314 8.12492 18.695 9.74863C15.685 9.5975 12.7404 8.81518 10.0523 7.45245C7.36425 6.08971 4.99276 4.177 3.09177 1.83847C2.44177 2.95967 2.06802 4.25961 2.06802 5.64405C2.06729 6.89037 2.37422 8.11759 2.96157 9.21684C3.54892 10.3161 4.39853 11.2534 5.43502 11.9455C4.23297 11.9073 3.05744 11.5825 2.00627 10.9982V11.0957C2.00615 12.8437 2.61082 14.5379 3.71769 15.8909C4.82456 17.2438 6.36545 18.1722 8.07889 18.5184C6.96379 18.8202 5.79469 18.8646 4.65989 18.6484C5.14333 20.1524 6.08501 21.4677 7.35312 22.41C8.62122 23.3523 10.1523 23.8744 11.7319 23.9034C9.05037 26.0083 5.73871 27.1502 2.32964 27.1451C1.72576 27.1453 1.12239 27.11 0.522644 27.0395C3.98304 29.2643 8.0112 30.4451 12.1251 30.4405C26.0514 30.4405 33.6645 18.9067 33.6645 8.90366C33.6645 8.57868 33.6564 8.25044 33.6418 7.92545C35.1226 6.85458 36.4009 5.52851 37.4166 4.00937L37.4199 4.0045Z" fill="white"/>
</svg>
